/* XPM */
static char *_e9ac83ad93843d6a03aa5187d93fb21aeHWsmOfX3YMvzjV[] = {
/* columns rows colors chars-per-pixel */
"32 32 4 1 ",
"  c None",
". c black",
"X c #58F898",
"o c #FCE0A8",
/* pixels */
"                    XXXXXXXX    ",
"                   XXXXXXXXXX   ",
"                  XXXXXXXXXXXX  ",
"                 XXXXXXXXXXXXXX ",
"                XXXXXXXXXXX..XXX",
"                XXXXXXXXXXX..XXX",
"                XXXXXXXXXXX..XXX",
"                XXXXXXXXXXX..XXX",
"                XXXXXXXXXXX..XXX",
"                XXXXXXXXXXX..XXX",
"                XXXXXXXXXXX..XXX",
"                XXXXXXXXXXXXXXXX",
"               X XXXXXXXXXXXXXX ",
"              XXX XXXXXXXXXXXX  ",
"             XXXXX XXXXXXXXXX   ",
"             XXXXX  XXXXXXXX    ",
"             XXXXXXXoooooooo    ",
"             XXXXXXXoooooooo    ",
"             XXXXXXX........    ",
"             XXXXXXXoooooooo    ",
"             XXXXXXXoooooooo    ",
"             XXXXXXX........    ",
"      XXXX   XXXXXXXoooooo      ",
"   XXXXXXXXX XXXXXXXoooooo      ",
"  XXXXXXXXXXX XXXXXX......      ",
"  XXXXXXXXXXX XXXXXXoooo        ",
" XXXXXXXXXXXX XXXXXXoooo        ",
"XXXXXXXXXXXXX  XXXXX....        ",
"XXXXXXXXXXXXXX  XXXXooo         ",
"XXXX        XXXX XXXooo         ",
"XXX          XXX XXX..          ",
"XXX          XXX XXXo           "
};
