/* XPM */
static char *f23b17ee462a412bc7e8cbaa48a6328bmrPpn2o6h5NZqQq7[] = {
/* columns rows colors chars-per-pixel */
"32 32 4 1 ",
"  c None",
". c black",
"X c #58F898",
"o c #FCE0A8",
/* pixels */
"    XXXXXXXX                    ",
"   XXXXXXXXXX                   ",
"  XXXXXXXXXXXX                  ",
" XXXXXXXXXXXXXX                 ",
"XXX..XXXXXXXXXXX                ",
"XXX..XXXXXXXXXXX                ",
"XXX..XXXXXXXXXXX                ",
"XXX..XXXXXXXXXXX                ",
"XXX..XXXXXXXXXXX                ",
"XXX..XXXXXXXXXXX                ",
"XXX..XXXXXXXXXXX                ",
"XXXXXXXXXXXXXXXX                ",
" XXXXXXXXXXXXXX X               ",
"  XXXXXXXXXXXX XXX              ",
"   XXXXXXXXXX XXXXX             ",
"    XXXXXXXX  XXXXX             ",
"    ooooooooXXXXXXX             ",
"    ooooooooXXXXXXX             ",
"    ........XXXXXXX             ",
"    ooooooooXXXXXXX             ",
"    ooooooooXXXXXXX             ",
"    ........XXXXXXX             ",
"      ooooooXXXXXXX   XXXX      ",
"      ooooooXXXXXXX XXXXXXXXX   ",
"      ......XXXXXX XXXXXXXXXXX  ",
"        ooooXXXXXX XXXXXXXXXXX  ",
"        ooooXXXXXX XXXXXXXXXXXX ",
"        ....XXXXX  XXXXXXXXXXXXX",
"         oooXXXX  XXXXXXXXXXXXXX",
"         oooXXX XXXX        XXXX",
"          ..XXX XXX          XXX",
"           oXXX XXX          XXX"
};
