/* XPM */
static char *_24f749f62d64070de1685536d64427c6HjJBXqhdYJRMqGd[] = {
/* columns rows colors chars-per-pixel */
"32 32 4 1 ",
"  c None",
". c black",
"X c #58F898",
"o c #FCE0A8",
/* pixels */
"      XXXXXXXX                  ",
"     XXXXXXXXXX                 ",
"    XXXXXXXXXXXX                ",
"   X..XXXXXXXXXXX               ",
"  XX..XXXXXXXXXXXX              ",
"  XX..XXXXXXXXXXXX              ",
"  XX..XXXXXXXXXXXX              ",
"  XX..XXXXXXXXXXXX              ",
"  XX..XXXXXXXXXXXX              ",
"  XX..XXXXXXXXXXXX              ",
"  XXXXXXXXXXXXXXXX              ",
"  XXXXXXXXXXXXXXXX              ",
"   XXXXXXXXXXXXXX               ",
"    XXXXXXXXXXXX                ",
"     XXXXXXXXXX XX              ",
"      XXXXXXXX XXX              ",
"      ooooooooXXXX              ",
"      oooooooXXXXX              ",
"      ......XXXXXX     XXX      ",
"      ooooXXXXXXXX    XXXXX     ",
"      oooXXXXXXXXX  XXXXXXXX    ",
"      ..XXXXXXXXX  XXXXXXXXXX   ",
"      oXXXXXXXXXX XXXXXXXXXXXXX ",
"      XXXXXXXXXXX XXXXXXXXXXXXX ",
"      XXXXXXXXXXX XXXXXXXXXXXXX ",
"      XXXXXXXXXXX XXXXXXXXXXXXX ",
"      XXXXXXXXXXX XXXXXXXXXXXXX ",
"      XXXXXXXXXXX XXXXXXX   XXX ",
"       XXXXXXXXXX XXXXXX    XXX ",
"        XXXXXXXXX XXXXX     XXXX",
"        XXXXXXX  XXXX       XXXX",
"         XXXXX   XX          XXX"
};
