/* XPM */
static char *a86e3746372a4ddb9c53e833f63f8d84PWAOBVhrxgv39oVo[] = {
/* columns rows colors chars-per-pixel */
"32 32 205 2 ",
"   c None",
".  c #6D081A",
"X  c #7F001A",
"o  c #7C1423",
"O  c #7C202C",
"+  c #742934",
"@  c #7E4C54",
"#  c #765C64",
"$  c #5E6A75",
"%  c #696C77",
"&  c #786973",
"*  c #69747E",
"=  c #7A716F",
"-  c #84011D",
";  c #8A001F",
":  c #92001D",
">  c #9A031C",
",  c #AB001D",
"<  c #A50117",
"1  c #B70118",
"2  c #8A0122",
"3  c #820920",
"4  c #9D012C",
"5  c #930024",
"6  c #901423",
"7  c #A30326",
"8  c #BC0021",
"9  c #B8012B",
"0  c #BD1C28",
"q  c #AB0435",
"w  c #B6063D",
"e  c #BA0438",
"r  c #92202F",
"t  c #91313B",
"y  c #AF2E36",
"u  c #CA001A",
"i  c #C70017",
"p  c #D40015",
"a  c #DA021A",
"s  c #C60021",
"d  c #C4002A",
"f  c #CA0126",
"g  c #D90026",
"h  c #C91421",
"j  c #D20235",
"k  c #D9043A",
"l  c #CA033A",
"z  c #EC002A",
"x  c #E70026",
"c  c #ED023A",
"v  c #E90136",
"b  c #C6272F",
"n  c #905D30",
"m  c #8F5B30",
"M  c #956232",
"N  c #996636",
"B  c #B70B40",
"V  c #BD154A",
"C  c #813C46",
"Z  c #B92958",
"A  c #BC3559",
"S  c #AC3055",
"D  c #C90E45",
"F  c #DB0B43",
"G  c #C51B4E",
"H  c #D91347",
"J  c #C41E53",
"K  c #E10C41",
"L  c #E90846",
"P  c #EB0C54",
"I  c #E31855",
"U  c #E2124B",
"Y  c #CA2759",
"T  c #D92557",
"R  c #C43B42",
"E  c #E7245E",
"W  c #CB3666",
"Q  c #D52E62",
"!  c #E42C66",
"~  c #F32F73",
"^  c #EF3471",
"/  c #924B51",
"(  c #B2464D",
")  c #805B60",
"_  c #B05A60",
"`  c #8A7277",
"'  c #947379",
"]  c #936066",
"[  c #A26A70",
"{  c #C74869",
"}  c #D24A78",
"|  c #EC4078",
" . c #C06078",
".. c #D38E4A",
"X. c #D6914B",
"o. c #DA954D",
"O. c #DE994E",
"+. c #DE9B53",
"@. c #D79451",
"#. c #E09C4F",
"$. c #E29E51",
"%. c #E5A253",
"&. c #E9A655",
"*. c #EBA957",
"=. c #ECAB5A",
"-. c #E6A558",
";. c #EBAD61",
":. c #EEB165",
">. c #EEB66E",
",. c #F4B764",
"<. c #F6B864",
"1. c #F9BB62",
"2. c #F0B66C",
"3. c #F3B96C",
"4. c #F2B970",
"5. c #F8C372",
"6. c #667282",
"7. c #6B7681",
"8. c #6F7A85",
"9. c #717E8E",
"0. c #8A7D84",
"q. c #EA5287",
"w. c #C57A8A",
"e. c #FA669C",
"r. c #F379A6",
"t. c #7B8B9E",
"y. c #7E90A2",
"u. c #938E94",
"i. c #86919D",
"p. c #9D9499",
"a. c #90878E",
"s. c #AA8E8F",
"d. c #BCA69E",
"f. c #8494A4",
"g. c #8A9BAA",
"h. c #8B99A5",
"j. c #959DA6",
"k. c #8C9FB4",
"l. c #A59CA2",
"z. c #B59DA7",
"x. c #99A2AA",
"c. c #95A6BA",
"v. c #9BAABE",
"b. c #93A3B4",
"n. c #8FA2B6",
"m. c #A8A5A9",
"M. c #BEA9A2",
"N. c #ADACB1",
"B. c #A4ACB8",
"V. c #B1AFB2",
"C. c #ADB4BB",
"Z. c #B4B2B5",
"A. c #B8B8BC",
"S. c #C4ACA2",
"D. c #CCB4A7",
"F. c #D2BCAD",
"G. c #C2BFBE",
"H. c #DAC5B3",
"J. c #E6C5A0",
"K. c #E9CAA5",
"L. c #EACEA9",
"P. c #E9D2AE",
"I. c #9EAEC1",
"U. c #9FB2C2",
"Y. c #A2AFC2",
"T. c #A4B3C4",
"R. c #A9B5C6",
"E. c #ABB7C9",
"W. c #ADB9CA",
"Q. c #A7B7C8",
"!. c #BABDC2",
"~. c #B1BDCD",
"^. c #B6BCC3",
"/. c #B3C1CF",
"(. c #BCC3CA",
"). c #BEC0C4",
"_. c #B5C2D0",
"`. c #BBC5D3",
"'. c #BEC9D6",
"]. c #C7C7C8",
"[. c #C2CAD5",
"{. c #CACDD3",
"}. c #C4CDDA",
"|. c #C5D2DC",
" X c #CBD4DE",
".X c #CBD3D9",
"XX c #D6D9DC",
"oX c #DBDDDE",
"OX c #D5D5D6",
"+X c #DED3CB",
"@X c #CED6E0",
"#X c #CCDAE1",
"$X c #D3DBE4",
"%X c #DADFE6",
"&X c #DBE2E9",
"*X c #DBE2E6",
"=X c #E1E6ED",
"-X c #E4E8EE",
";X c #E6E7E8",
":X c #EBEEF2",
">X c #E7EBF0",
",X c #EDF1F4",
"<X c #F2F3F4",
"1X c #F4F6F8",
"2X c #FBFCFC",
/* pixels */
"                          q.e.e.r.r.      j.V.$ i.C.            ",
"                        ! ~ ~ ~ q.q.q.    x.C.% f.^.            ",
"                      I P P P U I E ^ | { m.).% h.(.            ",
"                    P L c k j j k k U T Q w.C.* x.(.            ",
"                H L c z g f s s s f j k H Q  .& x.[.            ",
"              F c z z a u i h y 0 i 8 s k k G A l.}.            ",
"            k c z z p p p b [ u.' y 1 1 8 d l D { z.            ",
"          c c z x a p p b s.G.{.(.p.S 1 , , 9 e D A (           ",
"        c v x x p p a ( s.].:X<X<XOXm./ 7 , > 7 q w V Z         ",
"    Y H k g a i p a ( l.OX:X2X2X2X<XoXV.] 6 > 5 5 7 w V Z       ",
"  Y H k a u i i h _ M.oX<X2X2X2X2X2X<X;XG.' r : 2 2 4 B J Z     ",
"{ T l f 1 1 1 0 [ Z.oX<X2X2X2X2X2X2X1X<X;XG.0.t ; ; 2 7 w J W   ",
"Q H 9 , < 1 y ' A.oX:X<X<X1X1X1X<X<X1X<X,X;X].u.C - - 2 4 B Y } ",
"G e < > < t a.^.oX;X:X:X,X,X,X,X<X,X,X,X<X>X*X].p.) 3 - 2 4 B W ",
"B 4 : > / u.). X=X-X-X=X&X=X-X-X-X-X-X-X-X>X-X*X{.m.# 3 X 2 q V ",
"q ; 3 # l.)..X*X*X&XXXP.L.L.K.K.K.K.J.J.+X=X-X&X%X{.B.& O X 2 w ",
"4 O ` B.`.@X$X$X%X%X+X5.1.1.1.<.<.,.,.,.H.%X&X%X%X%X{.^.0.+ - 4 ",
"3 # A..X X@X@X@X X X].3.1.<.<.<.,.,.3.2.H.$X%X$X%X$X$X}.C.% . . ",
"    #X$X@X}.}.}.}.|.].3.1.<.3.<.3.3.3.>.F.@X$X$X$X$X@X@X[.i.    ",
"    &X#X@X'.'.'.'.}.G.3.<.<.3.3.4.>.:.=.F.|.|.@X X X X@X[.g.    ",
"    &X#X'.'._._.`.`.A.3.3.3.2.4.2.*.*.*.D.}.}.}.}.}.}.}.`.      ",
"    *X@X'.~.~.~.~._.A.3.3.3.2.=.*.*.*.%.D.`.`.'.}.[.}.[.~.      ",
"    #X'._.W.E.E.W.~.Z.3.4.2.*.*.*.*.%.%.S.`.`.`.~.[.[.`.~.      ",
"    #X'.~.R.R.R.R.W.Z.>.;.*.*.&.%.%.%.$.S._.~.`.~.~.`.~.W.      ",
"    #X'.Q.U.I.U.T.T.V.;.*.%.&.%.%.%.%.#.S./.~.~.~.~.~.~.R.      ",
"    |./.Q.I.c.I.I.T.V.-.*.%.%.%.$.$.#.O.d.W.W.W.W.~.W.W.Y.      ",
"    #X/.T.c.c.v.I.U.N.-.$.%.%.$.#.#.#.O.d.W.W.E.E.R.R.R.Y.      ",
"    #X/.Q.I.I.I.U.Q.V.+.$.$.$.$.#.#.o.o.d./.W./.W.E.E.E.Y.      ",
"    |./.T.I.I.I.U.Q.Z.+.$.$.#.#.O.o.o.o.M./././.W.Q.Q.R.Y.      ",
"    /.U.c.k.k.k.c.v.N.+.#.#.o.o.o.o.o.o.d.Q.v.v.v.v.v.v.c.i.    ",
"    T.g.y.t.t.t.y.g.m.o.o.o.o.X.X.X.X...s.x.g.h.h.f.f.f.f.9.    ",
"        9.6.6.6.6.6.= N N N M n n n m m = 8.7.7.7.7.7.8.        "
};
