/* XPM */
static char *_4e961c1e0fa4c04bb0870733e017decZQ7okdKwnrV9r9WX[] = {
/* columns rows colors chars-per-pixel */
"32 32 14 1 ",
"  c None",
". c black",
"X c #7A7A7B",
"o c #7A7B7C",
"O c #7C7C7C",
"+ c #0000B7",
"@ c #0000BB",
"# c #0000BC",
"$ c #0000BD",
"% c #FCE0A8",
"& c #FDE1A8",
"* c #FDE1A9",
"= c #FEE2A8",
"- c gray99",
/* pixels */
"          $@$@$@$@$@@$          ",
"          @$@$@$@$@$$@$         ",
"        --@$@@$@$@$@@$@$        ",
"        --$@@$@$@$@$$@$@        ",
"        --$$@$@$$@$@$@@$        ",
"        --@$@@$@$$$$$$$$        ",
"        $@$@$@$$$@$@$@$@        ",
"        @$@$@$$$@$@$@$@$        ",
"        %%..%%%..$@$@$@$        ",
"        %%..%%%.........        ",
"        %%..%=%%........        ",
"        %%..%%%%%%......        ",
"  OOOO   %%%%%%%=%......        ",
"  OOOO    %%%%%%%%......        ",
"  OOOOOOOO  %%%%%%%.....$@      ",
"  OOOOoXXO  %%%%%%%%$@$$@$@$    ",
"      OOOO    $@$$--@$@$@$@$    ",
"       ==%    @$$@--$@$@$@@$    ",
"      =%%---$@..--..$$$$@@$@--  ",
"      %=----@$..--..@$$@$@@$--  ",
"        --$$$@....@$@$$@$$---=  ",
"        --$$@$....$@@@@@$$--=%  ",
"              ..$@+$$@$@$@***=  ",
"              ..@$$@@$@$@$***%  ",
"                ----------      ",
"                ----------      ",
"                  $@@$@$$@$..   ",
"                  @$$@$@@$@..   ",
"                  $@$@$$$@$..   ",
"                  @$@$..@$@..   ",
"                  $@--..        ",
"                  ..--..        "
};
