/* XPM */
static char *_510436facc142f9bef60c2828af71822lIpfi1cjx4ZSMoU[] = {
/* columns rows colors chars-per-pixel */
"32 32 13 1 ",
"  c None",
". c black",
"X c #7C7C7C",
"o c #0000B6",
"O c #0000BB",
"+ c #0000BC",
"@ c #0000BD",
"# c #FCE0A8",
"$ c #FDE1A8",
"% c #FDE1A9",
"& c #FEE2A8",
"* c #FEE2A9",
"= c white",
/* pixels */
"           ++++++++++++         ",
"           ++++++++++++         ",
"         ++++++++++++O+===      ",
"         ++++++++++++O+===      ",
"         ++++++++++++++===      ",
"         +++++++@@+++++===      ",
"         +++++++++++++++++      ",
"         +++++++++++++++++      ",
"         +++++++O#####..%#      ",
"         .......%##%%%..##      ",
"         .......###%##..##      ",
"         .......##%%##..##      ",
"         .......#%%#####%       ",
"         +....#######%##        ",
"        +++..%######%%%         ",
"       ++++++%######%%          ",
"      ++OO++++===++             ",
"     ==+++++++===O+++           ",
"     ==+O++++++====+++  XXXXXX  ",
"     %%==+++++++===.==  XXXXXX  ",
"     %%==+O++o+++=.====XXXXXXX  ",
"     #%%%OOOO+O+++.====XX       ",
"     %#%%++++++++++%%%%XX       ",
"         ++++++++++%%% X        ",
"         ==========             ",
"         ==========             ",
"        ++++++++++++            ",
"       ++++++++++++++           ",
"      ++++++++  ++O+++          ",
"     +++++++++  ++++++          ",
"    .====...    ...====.        ",
"    .====...    ...====..       "
};
