/* XPM */
static char *e23dc553dfa945eba8332ae39f0a37c3hyGWNyhITjQfrZEF[] = {
/* columns rows colors chars-per-pixel */
"16 16 5 1 ",
"  c None",
". c black",
"X c gray25",
"o c #606060",
"O c white",
/* pixels */
"        .....   ",
"       .oooo... ",
"  ......ooooooX.",
" .ooooo.ooXoooo.",
".oooooo.ooXXOoo.",
".ooooooo.ooXXoo.",
".ooooooo.oooXXo.",
".oooooooo....Xo.",
".ooXoooXoo.O.oo.",
".ooXoooXoo.O.o. ",
".ooXoooXXoo.O.. ",
".ooXXXXXXoo.... ",
".ooX....Xooo.o. ",
".oo.    .oo..o. ",
".oo.    .oo.... ",
"....    ....    "
};
