/* XPM */
static char *e06c1c54e55c48f282f00ffd8d3c3dd4ZFvmT3SCni4lie6C[] = {
/* columns rows colors chars-per-pixel */
"32 32 4 1 ",
"  c None",
". c black",
"X c #58F898",
"o c #FCE0A8",
/* pixels */
"                  XXXXXXXX      ",
"                 XXXXXXXXXX     ",
"                XXXXXXXXXXXX    ",
"               XXXXXXXXXXX..X   ",
"              XXXXXXXXXXXX..XX  ",
"              XXXXXXXXXXXX..XX  ",
"              XXXXXXXXXXXX..XX  ",
"              XXXXXXXXXXXX..XX  ",
"              XXXXXXXXXXXX..XX  ",
"              XXXXXXXXXXXX..XX  ",
"              XXXXXXXXXXXXXXXX  ",
"              XXXXXXXXXXXXXXXX  ",
"               XXXXXXXXXXXXXX   ",
"                XXXXXXXXXXXX    ",
"              XX XXXXXXXXXX     ",
"              XXX XXXXXXXX      ",
"              XXXXoooooooo      ",
"              XXXXXooooooo      ",
"      XXX     XXXXXX......      ",
"     XXXXX    XXXXXXXXoooo      ",
"    XXXXXXXX  XXXXXXXXXooo      ",
"   XXXXXXXXXX  XXXXXXXXX..      ",
" XXXXXXXXXXXXX XXXXXXXXXXo      ",
" XXXXXXXXXXXXX XXXXXXXXXXX      ",
" XXXXXXXXXXXXX XXXXXXXXXXX      ",
" XXXXXXXXXXXXX XXXXXXXXXXX      ",
" XXXXXXXXXXXXX XXXXXXXXXXX      ",
" XXX   XXXXXXX XXXXXXXXXXX      ",
" XXX    XXXXXX XXXXXXXXXX       ",
"XXXX     XXXXX XXXXXXXXX        ",
"XXXX       XXXX  XXXXXXX        ",
"XXX          XX   XXXXX         "
};
