/* XPM */
static char *_1e59156794e42a39bffaf0c81668543T6vccgdpsoojLcOj[] = {
/* columns rows colors chars-per-pixel */
"32 32 17 1 ",
"  c None",
". c black",
"X c #F82E00",
"o c #F83000",
"O c #F93300",
"+ c #F93400",
"@ c #F83500",
"# c #F83600",
"$ c #F83800",
"% c #BCBCBC",
"& c #C0B7B7",
"* c gray99",
"= c #FCFDFD",
"- c #FDFDFD",
"; c #FCFEFE",
": c #FEFEFE",
"> c white",
/* pixels */
"         ..............         ",
"         ..............         ",
"         ..>>>>>>>>>>..         ",
"         ..>>>>>>>>>>..         ",
"         ..............         ",
"         ..............         ",
"         ..%%%%%%%%%%..         ",
"         ..%%>>*>>>%%..         ",
"         ..%%>>>>>>%%..         ",
"         ..%%>>*>>>%%..         ",
"         ..%%>>>*>>%%..         ",
"         ..%%>>*>>>%%..         ",
"         ..%%>>**>>%%..         ",
"        ...%%>>>*>>%%...        ",
"       ...%%%>>*>>>%%%...       ",
"      ...%%%%>>>*>>%%%%%..      ",
"     ..%%%%%>>>**>>>%%%%%..     ",
"     ..%%%%%>>==>>>>%%%%%..     ",
"     ..%%$$$>===**>>$$%%%..     ",
"     ..%%$$#>>>>>>>>$$%%%..     ",
"     ..%%$$$$$$$##$$$$%%%..     ",
"     ..%%$$$+$$$$$$o$$%%%..     ",
"     ..%%$$#XooooooX#$%%%..     ",
"     ..%%$$#+$$$$$$##$%%%..     ",
"     ..%%$$$+$$$$$$+$$%%%..     ",
"     ..%%$$$$++++++$$$%%%..     ",
"     ..%%&$$$$+$$+$$$%%%%..     ",
"     ..%%%%$$$$$$$$$%%%%..      ",
"      ...%%%%%%%%%%%%%%..       ",
"       ...%%%%%%%%%%%%..        ",
"        ...............         ",
"         .............          "
};
