/* XPM */
static char *_b4482e695304d72cf23d1a7e6e41090FDU6Cq9NgkNVpiBg[] = {
/* columns rows colors chars-per-pixel */
"32 32 13 1 ",
"  c None",
". c black",
"X c #7C7C7C",
"o c #0000B6",
"O c #0000BB",
"+ c #0000BC",
"@ c #0000BD",
"# c #FCE0A8",
"$ c #FDE1A8",
"% c #FDE1A9",
"& c #FEE2A8",
"* c #FEE2A9",
"= c white",
/* pixels */
"         ++++++++++++           ",
"         ++++++++++++           ",
"      ===+O++++++++++++         ",
"      ===+O++++++++++++         ",
"      ===++++++++++++++         ",
"      ===@++++@@+++++++         ",
"      +++++++++++++++++         ",
"      +++++++++++++++++         ",
"      ##..#####++++++++         ",
"      ##..##*###.......         ",
"      ##..##*###.......         ",
"      ##..###*##.......         ",
"       #########.......         ",
"        ##*#**####....+         ",
"         ##########..+++        ",
"          ########%++++++       ",
"             ++===++++O+++      ",
"           ++++===++++O++==     ",
"  XXXXXX  +++====++++++O+==     ",
"  XXXXXX  ==.===+++++++==##     ",
"  XXXXXXX====.=+++o++O+==##     ",
"       XX====.+++O+OOO+####     ",
"       XX####++++++++++####     ",
"        X ###++++++++++         ",
"             ==========         ",
"             ==========         ",
"            ++++++++++++        ",
"           ++++++++++++++       ",
"          +++OO+  ++++++++      ",
"          ++++++  +++++++++     ",
"        .====...    ...====.    ",
"       ..====...    ...====.    "
};
