/* XPM */
static char *_631819539918[] = {
/* columns rows colors chars-per-pixel */
"12 16 12 1 ",
"  c black",
". c #5B2400",
"X c #7F3300",
"o c #A84300",
"O c #AD7C00",
"+ c #CE9700",
"@ c #CC9A61",
"# c #FFC37A",
"$ c #808080",
"% c #C0C0C0",
"& c white",
"* c None",
/* pixels */
"******   ***",
"****  OOO  *",
"*** +++++++ ",
"****  .##   ",
"***** ### **",
"      @@   *",
" $$$X &&&& *",
" $  ##%&%% *",
"    #@&&%# *",
"*** X &&&# *",
"*** X ...# *",
"*** X ooo  *",
"*** X o o **",
"*** X o o **",
"*** X X X **",
"***       **"
};
